<svg width="3600" height="2100" viewBox="0 0 3600 2100" fill="none" xmlns="http://www.w3.org/2000/svg">
  <title>Livro aberto com castelo, árvore, flores, borboleta e céu pastel</title>
  <defs>
    <linearGradient id="sky" x1="0" x2="3600" y1="0" y2="2100">
      <stop stop-color="#F1E9FF"/>
      <stop offset=".44" stop-color="#FFEFF7"/>
      <stop offset="1" stop-color="#FFF8E8"/>
    </linearGradient>
    <linearGradient id="pageLeft" x1="1100" x2="1740" y1="940" y2="1680">
      <stop stop-color="#FFFDF6"/>
      <stop offset=".58" stop-color="#FFEED9"/>
      <stop offset="1" stop-color="#FFD8B7"/>
    </linearGradient>
    <linearGradient id="pageRight" x1="2500" x2="1760" y1="940" y2="1680">
      <stop stop-color="#FFFDF6"/>
      <stop offset=".58" stop-color="#FFECD7"/>
      <stop offset="1" stop-color="#FFD3BE"/>
    </linearGradient>
    <linearGradient id="castleBody" x1="740" x2="1260" y1="440" y2="1260">
      <stop stop-color="#FFB3C8"/>
      <stop offset=".55" stop-color="#FF8DAF"/>
      <stop offset="1" stop-color="#E85D8B"/>
    </linearGradient>
    <linearGradient id="treeTop" x1="2550" x2="3180" y1="430" y2="1110">
      <stop stop-color="#BCE08E"/>
      <stop offset=".5" stop-color="#86C56E"/>
      <stop offset="1" stop-color="#5EA15F"/>
    </linearGradient>
  </defs>

  <rect width="3600" height="2100" fill="url(#sky)"/>
  <path d="M210 980c155-196 377-151 482-76 133-205 431-228 601-55 160-127 396-114 531 32 150-71 338-45 454 77 131-171 414-165 552 22 161-77 364-24 460 132 95 152 52 351-91 456H397c-241-88-317-342-187-588Z" fill="#FFF8E7" opacity=".72"/>
  <path d="M2630 540c44-116 212-126 271-22 107-12 195 53 210 152h-660c16-83 80-127 179-130Z" fill="#FFF9E7" opacity=".92"/>
  <path d="M390 772c47-105 199-106 251-11 92-10 166 49 178 136H250c18-74 72-113 140-125Z" fill="#FFF8E7" opacity=".82"/>

  <g opacity=".85">
    <path d="M290 560l28 69 69 28-69 28-28 69-28-69-69-28 69-28 28-69Z" fill="#FFE979"/>
    <path d="M3186 670l30 74 74 30-74 30-30 74-30-74-74-30 74-30 30-74Z" fill="#FFE979"/>
    <path d="M1790 374l20 49 49 20-49 20-20 49-20-49-49-20 49-20 20-49Z" fill="#FFFFFF"/>
    <path d="M1514 585l18 44 44 18-44 18-18 44-18-44-44-18 44-18 18-44Z" fill="#FFE979"/>
    <circle cx="520" cy="360" r="7" fill="#FFFFFF"/>
    <circle cx="2230" cy="285" r="8" fill="#FFFFFF"/>
    <circle cx="3380" cy="920" r="7" fill="#FFFFFF"/>
  </g>

  <g>
    <path d="M2240 468c-93-133-204 16-74 69-149 42-27 194 74 70 96 129 222-26 70-70 133-58 28-204-70-69Z" fill="#FFB3C8" stroke="#F36F91" stroke-width="28" stroke-linejoin="round"/>
    <path d="M2245 468c14 76 5 146-39 205" stroke="#6A3A87" stroke-width="24" stroke-linecap="round"/>
    <path d="M2324 470c62-42 112-48 151-18" stroke="#F36F91" stroke-width="16" stroke-linecap="round" opacity=".55"/>
  </g>

  <g>
    <path d="M480 1470c330-395 575-246 832-402 402-244 683-211 975 62 277 260 670 76 993 344v334H480v-338Z" fill="#BCD98A"/>
    <path d="M555 1588c360-184 596-56 918-171 388-139 646-104 948 53 251 130 459 47 770 117v229H555v-228Z" fill="#8FD8CF" opacity=".6"/>
  </g>

  <g>
    <rect x="678" y="687" width="618" height="670" rx="68" fill="url(#castleBody)"/>
    <rect x="855" y="960" width="216" height="397" rx="103" fill="#6C3A75"/>
    <rect x="528" y="858" width="260" height="499" rx="48" fill="#FFB0C7"/>
    <rect x="1190" y="858" width="260" height="499" rx="48" fill="#FFB0C7"/>
    <path d="M518 858l140-329 141 329H518Z" fill="#7E4DB3"/>
    <path d="M1178 858l140-329 141 329h-281Z" fill="#7E4DB3"/>
    <path d="M760 687l226-429 226 429H760Z" fill="#8B58C3"/>
    <rect x="948" y="388" width="73" height="245" fill="#8B58C3"/>
    <path d="M1021 390c108-78 171 32 278-25-71 99-165 89-278 38V390Z" fill="#F36F91"/>
    <circle cx="986" cy="840" r="70" fill="#FFE7A3"/>
    <path d="M602 704c91-68 127 33 214-30" stroke="#FFD6E8" stroke-width="31" stroke-linecap="round"/>
    <path d="M1168 705c91-70 132 34 219-31" stroke="#FFD6E8" stroke-width="31" stroke-linecap="round"/>
  </g>

  <g>
    <path d="M2910 1530V920" stroke="#7C5134" stroke-width="122" stroke-linecap="round"/>
    <path d="M2935 1070c153-85 207-216 138-348 154 5 255 130 241 280 120 51 162 208 76 309 88 133-22 300-189 272-94 139-287 118-346-37-168 33-294-85-266-236-125-88-100-281 43-338-24-143 107-276 300-238-30 124-17 231 3 336Z" fill="url(#treeTop)"/>
    <path d="M3082 880c86 44 143 120 173 224M2814 1210c133-20 246-80 337-171" stroke="#6BA95E" stroke-width="36" stroke-linecap="round" opacity=".65"/>
    <circle cx="3130" cy="1004" r="32" fill="#FFF8EA"/>
    <circle cx="2798" cy="1125" r="28" fill="#FFF8EA"/>
  </g>

  <g>
    <path d="M1705 856C1363 730 1062 788 856 1028v586c264-246 537-278 849-130V856Z" fill="url(#pageLeft)"/>
    <path d="M1705 856c356-148 700-137 1050 36v594c-355-147-703-153-1050-2V856Z" fill="url(#pageRight)"/>
    <path d="M1705 856v628" stroke="#D18D7A" stroke-width="26" opacity=".44"/>
    <path d="M856 1028c262 48 531 113 849 456 352-293 699-282 1050 2" stroke="#6D3F98" stroke-width="78" stroke-linecap="round" stroke-linejoin="round"/>
    <path d="M970 1142c203-82 382-73 579 25M1018 1297c188-62 332-51 494 27M2049 1110c205-54 395-18 589 72M2014 1290c223-45 407-7 568 66" stroke="#EFB99D" stroke-width="22" stroke-linecap="round" opacity=".82"/>
    <path d="M1782 1538c68 112 162 108 233 0l-24 335-111-86-108 86 10-335Z" fill="#F36F91"/>
    <ellipse cx="1706" cy="1608" rx="118" ry="74" fill="#5D347F"/>
  </g>

  <g>
    <path d="M575 1517c-35-135 67-205 131-267" stroke="#5D9B7F" stroke-width="28" stroke-linecap="round"/>
    <circle cx="600" cy="1392" r="46" fill="#F36F91"/>
    <circle cx="520" cy="1346" r="42" fill="#FF9AB8"/>
    <circle cx="523" cy="1434" r="42" fill="#FF9AB8"/>
    <circle cx="679" cy="1340" r="42" fill="#FF9AB8"/>
    <circle cx="680" cy="1438" r="42" fill="#FF9AB8"/>
    <circle cx="600" cy="1392" r="25" fill="#FFE7A3"/>
    <path d="M320 1694c-49-89-137-92-183 0M531 1694c85-103 184-92 237 0" stroke="#79B785" stroke-width="42" stroke-linecap="round"/>
  </g>

  <g>
    <path d="M3100 1542c15-111 91-169 158-242" stroke="#5D9B7F" stroke-width="26" stroke-linecap="round"/>
    <circle cx="3162" cy="1417" r="41" fill="#FFE7A3"/>
    <circle cx="3097" cy="1375" r="36" fill="#F36F91"/>
    <circle cx="3102" cy="1456" r="36" fill="#F36F91"/>
    <circle cx="3223" cy="1371" r="36" fill="#F36F91"/>
    <circle cx="3226" cy="1457" r="36" fill="#F36F91"/>
    <circle cx="3162" cy="1417" r="22" fill="#F36F91"/>
    <path d="M2750 1704c-83-91-176-84-226 0M3180 1695c82-92 168-76 232 6" stroke="#79B785" stroke-width="42" stroke-linecap="round"/>
  </g>

  <path d="M2195 625c120-82 236-69 347 38" stroke="#FFFFFF" stroke-width="18" stroke-linecap="round" stroke-dasharray="42 40" opacity=".85"/>
  <path d="M2465 700c-80 82-166 85-258 12" stroke="#FFFFFF" stroke-width="18" stroke-linecap="round" stroke-dasharray="42 40" opacity=".85"/>
</svg>


