<svg xmlns="http://www.w3.org/2000/svg" viewBox="0 0 520 160">
  <rect width="520" height="160" rx="32" fill="#fff"/>
  <g transform="translate(16 10) scale(.9)">
    <defs>
      <linearGradient id="bubble" x1="20" x2="108" y1="14" y2="110">
        <stop stop-color="#BFEAF5"/>
        <stop offset=".5" stop-color="#F8D8EA"/>
        <stop offset="1" stop-color="#FFF8EA"/>
      </linearGradient>
      <linearGradient id="page" x1="35" x2="92" y1="66" y2="101">
        <stop stop-color="#FFF8EA"/>
        <stop offset="1" stop-color="#FFE7A3"/>
      </linearGradient>
    </defs>
    <path d="M28 91C15 91 6 82 6 70c0-8 4-15 11-18-1-13 10-24 24-23 6-12 19-18 32-14 7 2 13 6 17 12 15-5 30 4 32 19 12 1 21 11 21 23 0 14-12 24-27 22-5 10-16 16-28 14-7 8-20 9-28 2-10 5-23-1-27-12-1-2-2-4-5-4Z" fill="url(#bubble)" stroke="#3B246B" stroke-width="6" stroke-linejoin="round"/>
    <circle cx="96" cy="111" r="8" fill="#fff" stroke="#3B246B" stroke-width="5"/>
    <path d="M31 74c14-7 27-7 38 2v28c-12-9-25-9-38-2z" fill="url(#page)" stroke="#B98869" stroke-width="2"/>
    <path d="M69 76c11-9 24-9 38-2v28c-13-7-26-7-38 2z" fill="url(#page)" stroke="#B98869" stroke-width="2"/>
    <path d="M25 86l37 9 7 9 7-9 37-9" fill="none" stroke="#3B246B" stroke-linecap="round" stroke-linejoin="round" stroke-width="6"/>
    <path d="M69 76v28" stroke="#F36F91" stroke-linecap="round" stroke-width="2"/>
    <path d="M30 47l5 12 12 5-12 5-5 12-5-12-12-5 12-5zM96 30l4 10 10 4-10 4-4 10-4-10-10-4 10-4z" fill="#FFE7A3"/>
  </g>
  <text x="158" y="72" font-family="Georgia,serif" font-size="42" font-weight="700" fill="#3B246B">Histórias</text>
  <text x="158" y="116" font-family="Georgia,serif" font-size="40" font-weight="700" fill="#F36F91">da Mamá</text>
  <text x="320" y="116" font-family="Arial,sans-serif" font-size="12" font-weight="700" letter-spacing="4" fill="#273142">IMAGINAR E ENCANTAR</text>
</svg>
